<?xml version="1.0" encoding="UTF-8"?>
<svg version="1.1" xmlns="http://www.w3.org/2000/svg" width="128" height="128">
<path d="M0 0 C3.25752687 0.47382209 5.70208631 1.30807845 8.75 2.5 C15.92001002 5.22266597 21.17910477 5.35323709 28.4375 2.9375 C34.7210007 0.87222535 39.70051607 1.66912988 45.9375 3.5625 C53.7219552 5.64762193 59.40502915 4.51385423 66.76171875 1.375 C69.94347399 0.33454281 72.11073833 0.03722213 75.4375 0.5 C77.96484375 2.4765625 77.96484375 2.4765625 80.375 5.125 C83.29772476 8.25522939 86.12940993 11.17012384 89.5 13.8125 C92.68562958 16.72701217 93.1896136 17.35085377 93.4375 21.5 C92.35136843 24.950065 90.96626656 28.20533521 89.56640625 31.5390625 C86.55168844 40.43189804 88.82164712 49.07972534 91.4375 57.75 C95.06582726 70.75831831 97.05092122 82.99650051 90.4375 95.5 C84.57230561 104.97595469 74.38091122 108.6093916 64.4375 112.4375 C55.73194865 115.7915073 48.05749177 119.41670412 41.6875 126.4375 C39.4375 128.5 39.4375 128.5 36.5625 129.25 C32.57183108 128.29223946 31.19548261 126.48228552 28.49243164 123.51293945 C21.43561744 116.60033008 11.63977962 113.37972938 2.56054688 110.02148438 C-6.93196984 106.33772175 -15.29473739 101.09818098 -19.5625 91.5 C-23.40688937 80.06158797 -21.95027334 68.83835853 -18.5625 57.5 C-14.96572763 44.81408665 -14.67596513 36.80394438 -19.5625 24.5 C-20.6875 21.25 -20.6875 21.25 -20.5625 18.5 C-17.56146881 13.51385091 -12.7801953 9.78249378 -8.375 6.078125 C-6.41923814 4.44800667 -6.41923814 4.44800667 -4.4375 2.0625 C-2.5625 0.5 -2.5625 0.5 0 0 Z M31.25 30.47265625 C27.05228062 31.50530128 23.43257398 31.50060461 19.14233398 31.21484375 C11.6703646 30.7626559 5.7716154 30.87340299 -0.625 35 C-6.80250659 40.51903464 -7.45166314 46.70387756 -8.27197266 54.46875 C-8.72814972 57.65815602 -9.75072816 60.63170626 -10.75 63.6875 C-13.27331047 72.28436011 -14.24842549 80.52058453 -10.625 88.9375 C-5.34650008 97.91818069 4.14122117 100.76939998 13.33081055 104.53076172 C29.48674609 111.1561439 29.48674609 111.1561439 35.4375 117.5 C38.26392201 116.16512663 40.71660555 114.63634413 43.25 112.8125 C51.49220065 107.25443706 60.84497012 103.50063752 70.0625 99.875 C77.00856448 97.01649893 80.61306934 92.91958004 84.4375 86.5 C88.23553467 74.2137402 83.40707013 61.84218262 80.0637207 50.02124023 C79.4375 47.5 79.4375 47.5 79.046875 43.609375 C78.13724465 38.96792781 75.72019085 37.15804071 72.06274414 34.37280273 C64.94778876 29.68286726 56.81939287 31.01747006 48.68847656 31.45849609 C44.97861135 31.52689925 41.56818609 30.74898625 38.01953125 29.7421875 C35.38144434 29.49474213 33.79356086 29.82835424 31.25 30.47265625 Z " fill="#2E58FF" transform="translate(27.5625,-0.5)"/>
<path d="M0 0 C5.42831032 5.04134166 9.32386206 11.37089804 9.97265625 18.83203125 C10.1798983 27.43257631 8.17033151 35.1940404 2.296875 41.68359375 C-4.23535032 47.56404492 -11.05124028 50.20846177 -19.85546875 50.04296875 C-27.33855999 49.3161937 -33.66305541 46.03234571 -39.02734375 40.83203125 C-44.23488884 34.32920844 -46.73750618 27.21194795 -46.02734375 18.83203125 C-44.32099076 10.0851798 -40.70899439 3.10663967 -33.27734375 -2.04296875 C-22.58792427 -8.01527698 -9.86155344 -7.35589558 0 0 Z " fill="#2F59FF" transform="translate(82.02734375,45.16796875)"/>
<path d="M0 0 C4.67363125 3.32347111 8.97600324 7.49050973 10.8125 13 C11.41743596 19.00282609 10.800573 23.64207599 7.8125 29 C3.99615495 33.53835627 0.25864332 36.46405236 -5.69921875 37.390625 C-12.07111404 37.78164786 -16.22994449 36.66326848 -21.3046875 32.76171875 C-25.72390324 28.62672643 -27.38566346 25.07546594 -27.625 19 C-27.35483594 13.06539613 -25.72285712 8.82583009 -21.875 4.25 C-15.12733798 -1.39920542 -8.3931206 -2.63313587 0 0 Z " fill="#CCE3FF" transform="translate(72.1875,49)"/>
<path d="M0 0 C1.505625 0.495 3.01125 0.99 4.5625 1.5 C14.22648076 4.13790419 23.45844611 3.76795077 33 1 C36.81379827 0.98080303 40.38215095 1.79405032 44 3 C53.87096294 3.5531143 62.54721717 3.19530687 72 0 C75.63 3.63 79.26 7.26 83 11 C82.01 14.63 81.02 18.26 80 22 C74.34581284 18.31820371 74.34581284 18.31820371 71.76464844 15.94311523 C68.48705007 13.63947647 66.92089729 13.54040033 62.96484375 13.64453125 C61.82595703 13.66193359 60.68707031 13.67933594 59.51367188 13.69726562 C58.33353516 13.73529297 57.15339844 13.77332031 55.9375 13.8125 C53.59253707 13.86483722 51.2474808 13.9131845 48.90234375 13.95703125 C47.86585693 13.98772705 46.82937012 14.01842285 45.76147461 14.05004883 C43.27736819 14.00502701 41.37273857 13.65479693 39 13 C34.51713676 12.7942047 34.51713676 12.7942047 30.12548828 13.51928711 C27.48690731 14.11604405 25.1920005 13.97387651 22.4921875 13.81640625 C8.60482799 12.61606945 8.60482799 12.61606945 -3.5625 18 C-5.63254959 20.10109616 -5.63254959 20.10109616 -7 22 C-9.06351784 18.31514671 -9.76673875 15.31641436 -11 11 C-7.37 7.37 -3.74 3.74 0 0 Z " fill="#CCE3FF" transform="translate(28,9)"/>
<path d="M0 0 C2.6875 0.3125 2.6875 0.3125 5 1 C5.9140625 3.015625 5.9140625 3.015625 6 6 C4.14373199 8.91136003 1.78097471 11.28707915 -0.625 13.75 C-1.25535156 14.43449219 -1.88570312 15.11898437 -2.53515625 15.82421875 C-8.07362221 21.63903229 -8.07362221 21.63903229 -13 22 C-15.26092518 20.52286222 -16.94914706 19.2040508 -18.875 17.375 C-19.38546875 16.93542969 -19.8959375 16.49585937 -20.421875 16.04296875 C-21.8671875 14.7109375 -21.8671875 14.7109375 -24 12 C-23.8203125 9.1640625 -23.8203125 9.1640625 -23 7 C-20.875 6.1875 -20.875 6.1875 -18 6 C-15.77338016 7.45900762 -13.97789454 9.19791831 -12 11 C-11.34 11 -10.68 11 -10 11 C-8.29515534 9.31477271 -8.29515534 9.31477271 -6.5625 7.1875 C-1.73415823 1.46231721 -1.73415823 1.46231721 0 0 Z " fill="#365FFF" transform="translate(73,56)"/>
</svg>
